<svg width="56" height="56" viewBox="0 0 56 56" fill="none" xmlns="http://www.w3.org/2000/svg">
<rect width="56" height="56" fill="#F0B90B"/>
<g clip-path="url(#clip0_224_1779)">
<path d="M39.2569 20.9564V35.042L27.9262 28.5043L16.5955 35.0401V20.9601L27.9262 27.496L39.2569 20.9564ZM27.9262 21.5387L16.5937 15.0029L11 18.2308V37.7676L16.5937 40.9973L27.9243 34.4615L39.255 40.9973L44.8487 37.7676V18.2308L39.255 15.0029L27.9262 21.5387Z" fill="black"/>
<path d="M27.926 15.581L34.0913 12.022L27.926 8.46289L21.7588 12.022L27.926 15.581Z" fill="black"/>
<path d="M27.926 47.5371L34.0913 43.978L27.926 40.4189L21.7588 43.978L27.926 47.5371Z" fill="black"/>
</g>
<defs>
<clipPath id="clip0_224_1779">
<rect width="34" height="40" fill="white" transform="translate(11 8)"/>
</clipPath>
</defs>
</svg>
