<svg xmlns="http://www.w3.org/2000/svg" width="240" height="240" fill="none"><path fill="#FF9131" d="M110 70h-10v10h10zm10 0h-10v10h10zm10 0h-10v10h10zm10 0h-10v10h10zM90 80H80v10h10zm10 0H90v10h10zm10 0h-10v10h10zm10 0h-10v10h10zm10 0h-10v10h10zm10 0h-10v10h10zm10 0h-10v10h10zm10 0h-10v10h10zM80 90H70v10h10zm10 0H80v10h10zm10 0H90v10h10zm10 0h-10v10h10zm10 0h-10v10h10zm10 0h-10v10h10zm10 0h-10v10h10zm10 0h-10v10h10zm10 0h-10v10h10zm10 0h-10v10h10zm-90 10H70v10h10zm10 0H80v10h10zm10 0H90v10h10zm10 0h-10v10h10zm10 0h-10v10h10zm10 0h-10v10h10zm10 0h-10v10h10zm10 0h-10v10h10zm10 0h-10v10h10zm10 0h-10v10h10zM70 110H60v10h10zm10 0H70v10h10zm10 0H80v10h10zm10 0H90v10h10zm10 0h-10v10h10zm10 0h-10v10h10zm10 0h-10v10h10zm10 0h-10v10h10zm10 0h-10v10h10zm10 0h-10v10h10zm10 0h-10v10h10zm10 0h-10v10h10zM70 120H60v10h10zm10 0H70v10h10zm10 0H80v10h10zm10 0H90v10h10zm10 0h-10v10h10zm10 0h-10v10h10zm10 0h-10v10h10zm10 0h-10v10h10zm10 0h-10v10h10zm10 0h-10v10h10zm10 0h-10v10h10zm10 0h-10v10h10zM70 130H60v10h10zm10 0H70v10h10zm10 0H80v10h10zm10 0H90v10h10zm10 0h-10v10h10zm10 0h-10v10h10zm10 0h-10v10h10zm10 0h-10v10h10zm10 0h-10v10h10zm10 0h-10v10h10zm10 0h-10v10h10zm10 0h-10v10h10zM70 140H60v10h10zm10 0H70v10h10zm10 0H80v10h10zm10 0H90v10h10zm10 0h-10v10h10zm10 0h-10v10h10zm10 0h-10v10h10zm10 0h-10v10h10zm10 0h-10v10h10zm10 0h-10v10h10zm10 0h-10v10h10zm10 0h-10v10h10zM80 150H70v10h10zm10 0H80v10h10zm10 0H90v10h10zm10 0h-10v10h10zm10 0h-10v10h10z"/><path fill="#FFD889" d="M130 150h-10v10h10z"/><path fill="#FF9131" d="M140 150h-10v10h10zm10 0h-10v10h10zm10 0h-10v10h10zm10 0h-10v10h10zm-90 10H70v10h10zm10 0H80v10h10z"/><path fill="#FFD889" d="M100 160H90v10h10zm10 0h-10v10h10zm10 0h-10v10h10z"/><path fill="#FF9131" d="M130 160h-10v10h10zm10 0h-10v10h10zm10 0h-10v10h10zm10 0h-10v10h10zm10 0h-10v10h10zm-80 10H80v10h10zm10 0H90v10h10zm10 0h-10v10h10zm10 0h-10v10h10zm10 0h-10v10h10zm10 0h-10v10h10zm10 0h-10v10h10zm10 0h-10v10h10zm-50 10h-10v10h10zm10 0h-10v10h10zm10 0h-10v10h10zm10 0h-10v10h10z"/><path fill="#1BC02B" d="M110 70h-10v10h10z"/><path fill="#1BC02B" d="M110 70h-10v10h10zm0 10h-10v10h10zm0-20h-10v10h10zm-10-10H90v10h10zM90 40H80v10h10zm30 10h-10v10h10zm0 10h-10v10h10zm10-20h-10v10h10z"/><path fill="#A6A6A6" d="M100 100H90v10h10zm50 0h-10v10h10z"/><path fill="#5648ED" d="M100 110H90v10h10zm50 0h-10v10h10zm-50 10H90v10h10zm50 0h-10v10h10z"/><path fill="#383838" d="M170 110h-10v10h10zm-10 0h-10v10h10z"/><path fill="#5648ED" d="M100 140H90v-10h10zm50 0h-10v-10h10z"/><path fill="#383838" d="M90 100H80v10h10zm50 0h-10v10h10zm-50 10H80v10h10zm50 0h-10v10h10zm-50 10H80v10h10zm50 0h-10v10h10z"/><path fill="#5648ED" d="M90 130H80v10h10zm50 0h-10v10h10z"/><path fill="#8E8E8E" d="M170 110h-10v10h10zm-10 0h-10v10h10z"/><path fill="#5648ED" d="M100 130H90v10h10zm50 0h-10v10h10zm-50-20H90v10h10zm50 0h-10v10h10zm-50 10H90v10h10zm50 0h-10v10h10z"/><path fill="#8E8E8E" d="M100 100H90v10h10zm50 0h-10v10h10z"/><path fill="#5648ED" d="M90 130H80v10h10zm50 0h-10v10h10z"/><path fill="#8E8E8E" d="M90 110H80v10h10zm50 0h-10v10h10zm-50 10H80v10h10zm50 0h-10v10h10zm-50-20H80v10h10zm50 0h-10v10h10z"/><path fill="#5648ED" d="M80 130H70v10h10zm50 0h-10v10h10z"/><path fill="#8E8E8E" d="M80 110H70v10h10zm50 0h-10v10h10zm-50 10H70v10h10zm50 0h-10v10h10zm-50-20H70v10h10zm50 0h-10v10h10z"/><path fill="#5648ED" d="M70 130H60v10h10zm50 0h-10v10h10z"/><path fill="#8E8E8E" d="M70 110H60v10h10zm50 0h-10v10h10zm-50 10H60v10h10zm50 0h-10v10h10zm-50-20H60v10h10zm50 0h-10v10h10z"/><path fill="#5648ED" d="M170 110h-10v10h10z"/><path fill="#5648ED" d="M170 110h-10v10h10zm10 0h-10v10h10zm-20 0h-10v10h10zm-70 0H80v10h10z"/><path fill="#fff" d="M90 110H80v10h10z"/><path fill="#5648ED" d="M140 110h-10v10h10z"/><path fill="#fff" d="M140 110h-10v10h10z"/><path fill="#5648ED" d="M80 110H70v10h10z"/><path fill="#000" d="M80 110H70v10h10z"/><path fill="#5648ED" d="M130 110h-10v10h10z"/><path fill="#000" d="M130 110h-10v10h10z"/><path fill="#5648ED" d="M100 120H90v10h10zm50 0h-10v10h10zm-50-10H90v10h10zm50 0h-10v10h10zm-60 10H80v10h10z"/><path fill="#fff" d="M90 120H80v10h10z"/><path fill="#5648ED" d="M140 120h-10v10h10z"/><path fill="#fff" d="M140 120h-10v10h10z"/><path fill="#5648ED" d="M80 120H70v10h10z"/><path fill="#000" d="M80 120H70v10h10z"/><path fill="#5648ED" d="M130 120h-10v10h10z"/><path fill="#000" d="M130 120h-10v10h10z"/><path fill="#5648ED" d="M100 130H90v10h10zm50 0h-10v10h10zm-60 0H80v10h10z"/><path fill="#5648ED" d="M90 130H80v10h10zm50 0h-10v10h10z"/><path fill="#5648ED" d="M140 130h-10v10h10zm-60 0H70v10h10z"/><path fill="#5648ED" d="M80 130H70v10h10zm50 0h-10v10h10z"/><path fill="#5648ED" d="M130 130h-10v10h10zm-20-20h-10v10h10zm-10-10H90v10h10zm50 0h-10v10h10zm-60 0H80v10h10zm50 0h-10v10h10zm-60 0H70v10h10zm50 0h-10v10h10zm-60 0H60v10h10zm50 0h-10v10h10zm-50 10H60v10h10zm50 0h-10v10h10zm-50 10H60v10h10zm50 0h-10v10h10zm-50 10H60v10h10zm50 0h-10v10h10zm60-10h-10v10h10z"/></svg>